<?xml version="1.0" encoding="UTF-8"?>
<svg id="a" data-name="Ebene 1" xmlns="http://www.w3.org/2000/svg" viewBox="0 0 228.27 185.11">
  <defs>
    <style>
      .b {
        fill: #d8ebf4;
      }

      .b, .c {
        stroke: #bbd9e7;
        stroke-miterlimit: 10;
        stroke-width: 3px;
      }

      .c {
        fill: none;
      }

      .d {
        fill: #fff;
      }

      .d, .e {
        stroke-width: 0px;
      }

      .e {
        fill: #f9d351;
      }
    </style>
  </defs>
  <path class="b" d="m220.22,101.48c2.24,1.19,3.57,3.6,3.37,6.14l-5.22,67.29c-.39,2.29-2.7,3.72-4.93,3.05l-32.21-9.68c-2.43-.73-5.01-.8-7.48-.19l-62.88,15.39c-.83.2-1.7.16-2.5-.11l-61.82-21.14c-1.15-.39-2.4-.37-3.53.05l-35.8,13.45c-3.67,1.38-7.07-2.57-5.16-6l40.52-72.67c1.41-2.54,3.72-4.46,6.47-5.39l27.29-9.26c2.63-.89,5.48-.91,8.12-.04l46.77,15.36c.83.27,1.73.33,2.59.17l54.74-10.19c2.22-.41,4.51-.26,6.65.46l25.03,13.31Z"/>
  <line class="c" x1="44.51" y1="161.72" x2="79.71" y2="81.49"/>
  <line class="c" x1="109.33" y1="181.99" x2="132.29" y2="98.08"/>
  <line class="c" x1="177.52" y1="167.16" x2="192.35" y2="87.57"/>
  <line class="c" x1="178.62" y1="166.89" x2="177.52" y2="167.16"/>
  <g>
    <path class="e" d="m46.03,117.11c2.22,2.39,5.73,2.39,7.94,0,7.88-8.51,13.88-16.33,17.99-23.46,4.77-8.28,7.16-15.64,7.16-22.07,0-9.87-2.81-17.95-8.43-24.24-5.44-6.21-12.92-9.62-20.69-9.44-7.76-.18-15.25,3.23-20.69,9.44-5.62,6.29-8.43,14.37-8.43,24.24,0,6.43,2.39,13.78,7.16,22.07,4.11,7.13,10.1,14.95,17.99,23.46Z"/>
    <path class="d" d="m50,79.93c-3.94.06-7.72-1.52-10.45-4.35-2.83-2.73-4.4-6.52-4.35-10.45-.06-3.94,1.52-7.72,4.35-10.45,2.74-2.83,6.52-4.4,10.46-4.35,3.94-.06,7.72,1.52,10.45,4.35,2.83,2.73,4.4,6.52,4.35,10.45.06,3.94-1.52,7.72-4.35,10.45-2.73,2.83-6.52,4.4-10.45,4.35h0Z"/>
    <path class="e" d="m50,32.59c-4.33.06-8.5-1.67-11.51-4.79-3.12-3.01-4.85-7.18-4.79-11.51-.06-4.33,1.67-8.5,4.79-11.51C41.5,1.67,45.67-.06,50,0c4.33-.06,8.5,1.67,11.51,4.79,3.12,3.01,4.85,7.18,4.79,11.51.06,4.33-1.67,8.5-4.79,11.51-3.01,3.12-7.18,4.85-11.51,4.78h0Z"/>
  </g>
  <g>
    <path class="e" d="m121.73,166.5c2.57,2.77,6.63,2.77,9.2,0,9.14-9.86,16.08-18.92,20.85-27.18,5.53-9.6,8.29-18.12,8.29-25.57,0-11.44-3.26-20.8-9.77-28.09-6.3-7.19-14.97-11.15-23.97-10.94-9-.21-17.67,3.74-23.97,10.94-6.51,7.29-9.77,16.66-9.77,28.09,0,7.45,2.76,15.97,8.29,25.57,4.76,8.26,11.71,17.33,20.85,27.18Z"/>
    <path class="d" d="m126.34,123.41c-4.56.07-8.94-1.76-12.11-5.04-3.28-3.17-5.1-7.55-5.04-12.11-.07-4.56,1.76-8.94,5.04-12.11,3.17-3.28,7.55-5.1,12.12-5.04,4.56-.07,8.94,1.76,12.11,5.04,3.28,3.17,5.1,7.55,5.04,12.11.06,4.56-1.76,8.94-5.04,12.11-3.17,3.28-7.55,5.1-12.11,5.04h0Z"/>
    <path class="e" d="m126.34,68.55c-5.02.07-9.85-1.94-13.33-5.55-3.61-3.49-5.62-8.31-5.55-13.33-.07-5.02,1.94-9.85,5.55-13.33,3.49-3.61,8.32-5.62,13.34-5.55,5.02-.07,9.85,1.94,13.33,5.55,3.61,3.49,5.62,8.31,5.55,13.33.07,5.02-1.94,9.85-5.55,13.33-3.49,3.61-8.31,5.62-13.33,5.54h0Z"/>
  </g>
  <g>
    <path class="e" d="m196.96,132.16c2.1,2.26,5.42,2.26,7.51,0,7.46-8.05,13.13-15.45,17.02-22.2,4.52-7.84,6.77-14.8,6.77-20.88,0-9.34-2.66-16.98-7.98-22.94-5.14-5.87-12.23-9.11-19.57-8.93-7.35-.17-14.43,3.06-19.57,8.93-5.32,5.95-7.98,13.6-7.98,22.94,0,6.08,2.26,13.04,6.77,20.88,3.89,6.75,9.56,14.15,17.02,22.2Z"/>
    <path class="d" d="m200.72,96.98c-3.72.05-7.3-1.44-9.89-4.11-2.68-2.59-4.17-6.17-4.11-9.89-.05-3.72,1.44-7.3,4.11-9.89,2.59-2.68,6.17-4.17,9.89-4.11,3.72-.05,7.3,1.44,9.89,4.11,2.68,2.59,4.17,6.17,4.11,9.89.05,3.72-1.44,7.3-4.11,9.89-2.59,2.68-6.17,4.17-9.89,4.11h0Z"/>
    <path class="e" d="m200.72,52.19c-4.1.06-8.04-1.58-10.89-4.53-2.95-2.85-4.59-6.79-4.53-10.89-.06-4.1,1.58-8.04,4.53-10.89,2.85-2.95,6.79-4.59,10.89-4.53,4.1-.06,8.04,1.58,10.89,4.53,2.95,2.85,4.59,6.79,4.53,10.89.06,4.1-1.58,8.04-4.53,10.89-2.85,2.95-6.79,4.59-10.89,4.53h0Z"/>
  </g>
</svg>