<?xml version="1.0" standalone="no"?>
<!DOCTYPE svg PUBLIC "-//W3C//DTD SVG 20010904//EN"
 "http://www.w3.org/TR/2001/REC-SVG-20010904/DTD/svg10.dtd">
<svg version="1.0" xmlns="http://www.w3.org/2000/svg"
 width="1488.000000pt" height="1488.000000pt" viewBox="0 0 1488.000000 1488.000000"
 preserveAspectRatio="xMidYMid meet">
<metadata>
Created by potrace 1.14, written by Peter Selinger 2001-2017
</metadata>
<g transform="translate(0.000000,1488.000000) scale(0.100000,-0.100000)"
fill="#000000" stroke="none">
<path d="M7255 14874 c-16 -2 -66 -9 -110 -15 -318 -41 -652 -180 -920 -383
-100 -75 -297 -267 -378 -366 -320 -396 -472 -887 -436 -1415 34 -512 244
-957 622 -1322 374 -360 811 -548 1326 -569 510 -22 998 141 1376 458 531 445
790 1045 744 1726 -34 512 -238 946 -620 1317 -309 301 -641 472 -1059 546
-84 15 -169 22 -315 24 -110 2 -213 1 -230 -1z"/>
<path d="M7145 10130 c-1011 -79 -1903 -606 -2558 -1511 -207 -287 -391 -644
-523 -1016 -232 -654 -322 -1543 -223 -2203 208 -1388 1173 -3040 2878 -4925
304 -336 369 -390 525 -442 68 -22 100 -27 196 -27 101 -1 126 2 204 28 162
53 219 101 527 441 1705 1886 2670 3537 2878 4925 70 466 45 1084 -64 1622
-178 875 -604 1644 -1228 2216 -547 502 -1185 798 -1902 882 -121 14 -573 21
-710 10z m669 -1579 c380 -77 718 -270 994 -566 247 -265 401 -574 468 -940
27 -149 25 -487 -4 -647 -120 -655 -612 -1221 -1239 -1428 -216 -70 -314 -85
-583 -85 -263 0 -347 11 -548 71 -289 87 -541 241 -767 468 -360 362 -545 804
-545 1306 0 476 170 910 492 1255 298 319 655 512 1076 580 139 22 516 14 656
-14z"/>
</g>
</svg>
